<svg width="20" height="20" viewBox="0 0 20 20" fill="none" xmlns="http://www.w3.org/2000/svg">
<path d="M7.94165 1.9429C8.71434 0.62493 10.6196 0.624932 11.3923 1.9429L13.1182 4.88664C13.4002 5.36761 13.8701 5.70904 14.4147 5.8286L17.7476 6.5603C19.2399 6.8879 19.8287 8.69996 18.814 9.8421L16.5476 12.3931C16.1773 12.8099 15.9978 13.3624 16.0524 13.9173L16.3865 17.3132C16.536 18.8337 14.9946 19.9536 13.5948 19.3415L10.4683 17.9744C9.95743 17.751 9.37655 17.751 8.86572 17.9744L5.73919 19.3415C4.33939 19.9536 2.79797 18.8336 2.94753 17.3132L3.28158 13.9173C3.33616 13.3624 3.15666 12.8099 2.78637 12.3931L0.520014 9.8421C-0.494672 8.69996 0.0941037 6.8879 1.58634 6.5603L4.91932 5.8286C5.46388 5.70904 5.93383 5.36761 6.21581 4.88664L7.94165 1.9429Z" fill="#FFCE22" stroke="none"/>
</svg>
